<svg id="svg" version="1.1" xmlns="http://www.w3.org/2000/svg" xmlns:xlink="http://www.w3.org/1999/xlink" width="400" height="400" viewBox="0, 0, 400,400"><g id="svgg"><path id="path0" d="M172.800 1.047 C 168.644 3.328,165.668 7.299,161.258 16.444 C 158.098 22.997,155.200 29.208,155.200 29.428 C 155.200 29.568,154.081 32.125,152.370 35.896 C 151.946 36.828,151.600 37.678,151.600 37.784 C 151.600 37.890,151.169 38.927,150.643 40.088 C 146.855 48.448,135.776 76.630,128.742 95.800 C 128.096 97.560,127.415 99.360,127.230 99.800 C 125.398 104.138,121.350 116.055,116.630 131.000 C 115.380 134.960,114.116 138.920,113.821 139.800 C 113.527 140.680,112.536 143.830,111.618 146.800 C 110.701 149.770,109.706 152.920,109.407 153.800 C 109.108 154.680,108.025 158.100,107.002 161.400 C 104.585 169.190,100.106 183.352,99.411 185.400 C 99.113 186.280,98.394 188.530,97.815 190.400 C 97.235 192.270,95.496 197.760,93.950 202.600 C 90.485 213.451,89.334 217.110,87.216 224.000 C 86.303 226.970,85.310 230.120,85.009 231.000 C 84.709 231.880,83.629 235.300,82.609 238.600 C 81.589 241.900,80.596 245.050,80.401 245.600 C 80.070 246.533,79.473 248.483,75.779 260.700 C 74.997 263.285,74.201 265.760,74.010 266.200 C 73.819 266.640,73.277 268.350,72.807 270.000 C 72.336 271.650,71.141 275.610,70.152 278.800 C 67.980 285.799,67.118 288.634,66.199 291.800 C 65.583 293.921,63.378 301.277,62.362 304.600 C 61.767 306.545,60.191 311.877,58.815 316.600 C 58.110 319.020,57.079 322.350,56.524 324.000 C 54.862 328.942,53.169 333.748,52.791 334.600 C 52.596 335.040,51.540 337.673,50.446 340.452 C 40.957 364.540,30.653 372.006,24.793 359.042 C 20.901 350.431,17.137 330.731,14.389 304.600 C 14.035 301.235,13.259 290.953,12.413 278.400 C 10.631 251.985,10.913 205.409,13.008 180.200 C 14.519 162.022,17.283 139.917,19.385 129.200 C 19.708 127.550,20.261 124.580,20.614 122.600 C 20.966 120.620,21.894 116.030,22.676 112.400 C 23.458 108.770,24.182 105.350,24.285 104.800 C 24.440 103.975,28.448 87.193,28.966 85.200 C 29.686 82.430,33.539 69.312,34.664 65.800 C 35.440 63.380,36.309 60.590,36.597 59.600 C 36.884 58.610,37.874 55.730,38.796 53.200 C 39.717 50.670,40.832 47.520,41.272 46.200 C 41.712 44.880,42.344 43.170,42.677 42.400 C 43.009 41.630,43.437 40.640,43.627 40.200 C 43.817 39.760,44.769 37.420,45.742 35.000 C 48.599 27.899,52.499 19.036,55.581 12.640 C 57.796 8.044,58.333 6.604,57.927 6.346 C 55.469 4.787,46.145 3.607,36.246 3.603 C 25.880 3.599,20.256 4.557,14.400 7.327 C 12.659 8.151,9.033 12.110,7.740 14.600 C 5.947 18.051,4.580 22.249,2.204 31.600 C 1.616 33.910,0.880 36.644,0.568 37.675 C 0.081 39.282,0.000 63.739,0.000 208.837 L 0.000 378.123 1.029 380.361 C 4.509 387.933,6.955 392.102,11.317 397.900 L 12.897 400.000 30.225 400.000 L 47.553 400.000 49.294 397.700 C 52.888 392.952,58.789 383.218,65.360 371.200 C 68.128 366.136,74.695 352.630,77.806 345.600 C 78.633 343.730,80.005 340.697,80.855 338.860 C 81.705 337.023,82.400 335.469,82.400 335.406 C 82.400 335.343,83.190 333.605,84.156 331.545 C 85.121 329.485,87.299 324.560,88.995 320.600 C 90.691 316.640,92.490 312.496,92.992 311.391 C 93.495 310.286,94.567 307.766,95.375 305.791 C 96.182 303.816,97.214 301.393,97.668 300.406 C 98.122 299.419,99.297 296.629,100.281 294.206 C 102.694 288.261,106.721 278.568,107.596 276.600 C 108.382 274.834,112.065 265.744,113.269 262.600 C 114.651 258.991,118.579 248.091,121.269 240.400 C 125.728 227.649,129.718 216.071,130.021 215.000 C 130.208 214.340,132.079 208.760,134.181 202.600 C 136.282 196.440,139.277 187.620,140.838 183.000 C 142.398 178.380,143.826 174.240,144.011 173.800 C 144.196 173.360,147.231 164.360,150.755 153.800 C 154.279 143.240,158.267 131.450,159.617 127.600 C 160.967 123.750,162.219 120.150,162.400 119.600 C 162.581 119.050,163.573 116.260,164.604 113.400 C 165.635 110.540,166.623 107.750,166.801 107.200 C 166.978 106.650,167.655 104.760,168.304 103.000 C 169.487 99.795,172.167 92.379,174.446 86.000 C 177.792 76.637,185.487 59.538,190.108 51.200 C 196.589 39.505,205.317 28.800,208.372 28.800 C 209.118 28.800,208.839 27.627,207.533 25.278 C 200.173 12.039,193.204 4.258,185.759 0.965 C 182.542 -0.458,175.460 -0.413,172.800 1.047 M308.200 0.674 C 307.100 1.002,305.570 1.432,304.800 1.628 C 298.202 3.312,291.043 5.286,289.000 5.984 C 288.560 6.135,285.860 7.034,283.000 7.982 C 255.829 16.987,219.323 38.637,214.326 48.708 C 213.024 51.334,212.792 58.299,213.911 61.200 C 214.123 61.750,214.631 63.280,215.040 64.600 C 216.824 70.359,225.152 82.400,227.350 82.400 C 227.581 82.400,230.656 79.564,234.185 76.098 C 241.384 69.026,244.441 66.156,248.787 62.389 C 250.430 60.965,252.230 59.384,252.787 58.877 C 256.424 55.561,266.747 47.673,270.900 45.036 C 273.673 43.275,273.654 43.164,271.763 49.888 C 270.972 52.700,270.183 55.630,270.010 56.400 C 269.836 57.170,269.391 58.880,269.021 60.200 C 268.651 61.520,267.899 64.310,267.350 66.400 C 266.801 68.490,266.011 71.370,265.594 72.800 C 265.177 74.230,264.393 77.110,263.853 79.200 C 263.313 81.290,262.306 85.070,261.615 87.600 C 259.477 95.434,258.776 98.028,257.401 103.200 C 256.670 105.950,255.583 110.000,254.986 112.200 C 254.388 114.400,253.394 118.090,252.777 120.400 C 252.159 122.710,251.217 126.220,250.682 128.200 C 249.737 131.698,247.505 140.160,243.430 155.700 C 242.896 157.735,241.795 161.920,240.983 165.000 C 240.171 168.080,239.015 172.537,238.415 174.905 C 237.814 177.273,237.205 179.328,237.061 179.472 C 236.918 179.616,236.800 180.052,236.800 180.441 C 236.800 180.830,236.011 184.085,235.047 187.674 C 234.083 191.263,233.199 194.650,233.081 195.200 C 232.884 196.124,231.730 200.485,229.004 210.600 C 228.411 212.800,227.517 216.130,227.017 218.000 C 226.517 219.870,225.522 223.560,224.806 226.200 C 224.090 228.840,223.363 231.630,223.190 232.400 C 223.017 233.170,222.311 235.870,221.620 238.400 C 220.357 243.029,218.804 249.052,212.803 272.600 C 208.323 290.179,208.188 290.718,206.777 296.600 C 206.091 299.460,205.280 302.700,204.975 303.800 C 204.671 304.900,203.862 308.050,203.177 310.800 C 197.517 333.552,192.017 349.537,184.944 363.800 C 182.463 368.801,182.662 368.453,179.249 373.800 C 175.838 379.145,174.218 381.017,170.409 384.018 C 168.644 385.408,167.200 386.709,167.200 386.909 C 167.200 388.342,175.681 395.575,180.315 398.094 L 183.800 399.989 195.387 399.994 C 208.461 400.001,208.588 399.979,213.277 396.918 C 218.558 393.469,222.878 387.400,227.313 377.200 C 228.356 374.801,231.927 365.061,232.226 363.800 C 232.382 363.140,232.641 362.420,232.801 362.200 C 232.962 361.980,233.187 361.350,233.303 360.800 C 233.418 360.250,234.251 357.280,235.154 354.200 C 237.513 346.153,237.493 346.224,238.766 341.400 C 239.989 336.770,244.469 318.416,245.211 315.000 C 245.450 313.900,245.900 311.920,246.211 310.600 C 247.431 305.430,248.330 301.329,248.581 299.800 C 248.726 298.920,249.086 297.120,249.382 295.800 C 249.677 294.480,250.221 291.870,250.590 290.000 C 250.959 288.130,251.421 285.970,251.616 285.200 C 251.812 284.430,252.426 281.460,252.980 278.600 C 255.089 267.710,255.645 264.957,256.011 263.600 C 256.218 262.830,256.778 260.130,257.254 257.600 C 258.323 251.922,258.263 252.000,261.549 252.001 C 263.007 252.001,265.640 251.827,267.400 251.613 C 269.160 251.400,273.030 250.936,276.000 250.583 C 293.516 248.500,314.456 243.177,326.200 237.823 C 326.860 237.522,328.570 236.790,330.000 236.196 C 335.962 233.719,351.926 225.315,357.550 221.692 C 372.968 211.763,381.045 205.343,392.701 193.757 L 400.002 186.500 399.901 95.156 L 399.800 3.811 395.600 1.923 L 391.400 0.035 350.800 0.056 C 315.996 0.074,309.914 0.162,308.200 0.674 M352.600 18.539 C 369.659 21.726,381.264 28.981,389.386 41.536 C 391.249 44.416,394.855 51.676,395.378 53.600 C 395.528 54.150,395.808 54.960,396.000 55.400 C 398.082 60.157,399.602 70.626,399.595 80.164 C 399.570 117.276,386.402 151.361,361.801 177.999 C 344.580 196.645,319.833 213.391,296.800 221.983 C 294.930 222.680,292.961 223.431,292.425 223.651 C 287.470 225.684,270.932 229.996,264.038 231.052 L 262.276 231.322 262.525 229.961 C 262.662 229.212,263.034 227.250,263.351 225.600 C 264.979 217.138,265.260 215.644,265.570 213.800 C 266.108 210.602,267.979 199.986,268.390 197.800 C 268.597 196.700,269.059 194.090,269.418 192.000 C 269.776 189.910,270.229 187.570,270.424 186.800 C 270.619 186.030,271.604 181.530,272.613 176.800 C 274.267 169.049,275.357 164.170,277.037 157.000 C 277.347 155.680,277.942 152.980,278.361 151.000 C 279.053 147.729,281.866 135.320,282.806 131.400 C 283.016 130.520,283.648 127.820,284.209 125.400 C 284.770 122.980,285.597 119.470,286.047 117.600 C 287.272 112.507,288.566 107.064,290.611 98.400 C 291.624 94.110,292.621 90.187,292.826 89.681 C 293.032 89.176,293.200 88.382,293.200 87.916 C 293.200 87.451,293.473 86.154,293.807 85.035 C 294.359 83.184,297.467 70.515,301.029 55.600 C 301.790 52.410,302.592 49.170,302.809 48.400 C 304.901 40.994,305.423 37.800,304.810 36.146 C 303.877 33.626,301.690 30.490,300.121 29.424 L 298.712 28.466 299.856 27.882 C 300.485 27.561,302.620 26.631,304.600 25.816 C 306.580 25.001,308.740 24.107,309.400 23.829 C 314.929 21.504,325.178 18.941,333.400 17.829 C 336.044 17.471,349.560 17.971,352.600 18.539 M309.210 357.590 C 307.911 358.889,307.800 360.080,307.800 372.671 C 307.800 387.514,307.599 386.933,312.791 387.117 C 317.433 387.281,317.600 387.093,317.600 381.709 C 317.600 376.764,318.123 376.405,320.084 380.000 C 326.042 390.922,326.162 390.909,333.866 378.455 C 334.993 376.633,335.246 377.218,335.502 382.233 C 335.772 387.519,335.580 387.363,342.081 387.541 C 351.512 387.798,351.175 388.171,351.485 377.127 C 352.021 358.023,351.639 356.800,345.142 356.800 L 341.200 356.800 339.700 358.303 C 338.875 359.129,337.120 361.490,335.800 363.549 C 331.128 370.836,331.601 370.809,327.017 364.054 C 325.487 361.799,323.579 359.244,322.779 358.377 L 321.323 356.800 315.661 356.800 C 310.558 356.800,309.922 356.878,309.210 357.590 M358.690 357.751 C 356.088 360.163,356.188 385.402,358.806 386.803 C 360.151 387.523,387.821 387.321,388.556 386.587 C 390.074 385.069,390.100 381.631,388.598 381.055 C 388.233 380.915,385.285 380.800,382.047 380.800 C 375.302 380.800,375.200 380.755,375.200 377.800 C 375.200 374.953,375.464 374.800,380.391 374.800 C 385.343 374.800,386.400 374.352,386.400 372.254 C 386.400 369.710,385.830 369.423,380.334 369.200 L 375.400 369.000 375.282 366.546 C 375.107 362.903,375.287 362.800,381.855 362.800 C 388.313 362.800,388.800 362.617,388.800 360.186 C 388.800 356.708,389.218 356.800,373.458 356.800 L 359.717 356.800 358.690 357.751 M294.925 378.441 C 291.520 379.426,290.536 384.760,293.412 386.645 C 297.398 389.256,302.400 387.158,302.400 382.876 C 302.400 379.059,299.250 377.190,294.925 378.441 " stroke="none" fill="#fafafa" fill-rule="evenodd"></path><path id="path1" d="M0.000 19.400 C 0.000 30.070,0.083 38.800,0.185 38.800 C 0.286 38.800,0.561 38.035,0.795 37.100 C 4.335 22.976,5.720 18.488,7.740 14.600 C 9.033 12.110,12.659 8.151,14.400 7.327 C 20.256 4.557,25.880 3.599,36.246 3.603 C 46.145 3.607,55.469 4.787,57.927 6.346 C 58.333 6.604,57.796 8.044,55.581 12.640 C 52.499 19.036,48.599 27.899,45.742 35.000 C 44.769 37.420,43.817 39.760,43.627 40.200 C 43.437 40.640,43.009 41.630,42.677 42.400 C 42.344 43.170,41.712 44.880,41.272 46.200 C 40.832 47.520,39.717 50.670,38.796 53.200 C 37.874 55.730,36.884 58.610,36.597 59.600 C 36.309 60.590,35.440 63.380,34.664 65.800 C 33.539 69.312,29.686 82.430,28.966 85.200 C 28.448 87.193,24.440 103.975,24.285 104.800 C 24.182 105.350,23.458 108.770,22.676 112.400 C 21.894 116.030,20.966 120.620,20.614 122.600 C 20.261 124.580,19.708 127.550,19.385 129.200 C 17.283 139.917,14.519 162.022,13.008 180.200 C 10.913 205.409,10.631 251.985,12.413 278.400 C 13.973 301.535,14.593 308.133,16.582 322.794 C 17.358 328.515,19.405 340.041,20.668 345.800 C 26.754 373.553,38.217 371.494,50.446 340.452 C 51.540 337.673,52.596 335.040,52.791 334.600 C 53.169 333.748,54.862 328.942,56.524 324.000 C 57.079 322.350,58.110 319.020,58.815 316.600 C 60.191 311.877,61.767 306.545,62.362 304.600 C 63.378 301.277,65.583 293.921,66.199 291.800 C 67.118 288.634,67.980 285.799,70.152 278.800 C 71.141 275.610,72.336 271.650,72.807 270.000 C 73.277 268.350,73.819 266.640,74.010 266.200 C 74.201 265.760,74.997 263.285,75.779 260.700 C 79.473 248.483,80.070 246.533,80.401 245.600 C 80.596 245.050,81.589 241.900,82.609 238.600 C 83.629 235.300,84.709 231.880,85.009 231.000 C 85.310 230.120,86.303 226.970,87.216 224.000 C 89.334 217.110,90.485 213.451,93.950 202.600 C 95.496 197.760,97.235 192.270,97.815 190.400 C 98.394 188.530,99.113 186.280,99.411 185.400 C 100.106 183.352,104.585 169.190,107.002 161.400 C 108.025 158.100,109.108 154.680,109.407 153.800 C 109.706 152.920,110.701 149.770,111.618 146.800 C 112.536 143.830,113.527 140.680,113.821 139.800 C 114.116 138.920,115.380 134.960,116.630 131.000 C 121.350 116.055,125.398 104.138,127.230 99.800 C 127.415 99.360,128.096 97.560,128.742 95.800 C 135.776 76.630,146.855 48.448,150.643 40.088 C 151.169 38.927,151.600 37.890,151.600 37.784 C 151.600 37.678,151.946 36.828,152.370 35.896 C 154.081 32.125,155.200 29.568,155.200 29.428 C 155.200 29.210,158.092 23.010,161.218 16.528 C 165.687 7.259,169.264 2.535,172.996 0.976 C 173.768 0.653,174.400 0.302,174.400 0.195 C 174.400 0.088,135.160 0.000,87.200 0.000 L 0.000 0.000 0.000 19.400 M185.867 0.986 C 193.294 4.363,200.227 12.136,207.533 25.278 C 208.839 27.627,209.118 28.800,208.372 28.800 C 205.317 28.800,196.589 39.505,190.108 51.200 C 185.487 59.538,177.792 76.637,174.446 86.000 C 172.167 92.379,169.487 99.795,168.304 103.000 C 167.655 104.760,166.978 106.650,166.801 107.200 C 166.623 107.750,165.635 110.540,164.604 113.400 C 163.573 116.260,162.581 119.050,162.400 119.600 C 162.219 120.150,160.967 123.750,159.617 127.600 C 158.267 131.450,154.279 143.240,150.755 153.800 C 147.231 164.360,144.196 173.360,144.011 173.800 C 143.826 174.240,142.398 178.380,140.838 183.000 C 139.277 187.620,136.282 196.440,134.181 202.600 C 132.079 208.760,130.208 214.340,130.021 215.000 C 129.718 216.071,125.728 227.649,121.269 240.400 C 118.579 248.091,114.651 258.991,113.269 262.600 C 112.065 265.744,108.382 274.834,107.596 276.600 C 106.721 278.568,102.694 288.261,100.281 294.206 C 99.297 296.629,98.122 299.419,97.668 300.406 C 97.214 301.393,96.182 303.816,95.375 305.791 C 94.567 307.766,93.495 310.286,92.992 311.391 C 92.490 312.496,90.691 316.640,88.995 320.600 C 87.299 324.560,85.121 329.485,84.156 331.545 C 83.190 333.605,82.400 335.343,82.400 335.406 C 82.400 335.469,81.705 337.023,80.855 338.860 C 80.005 340.697,78.633 343.730,77.806 345.600 C 74.695 352.630,68.128 366.136,65.360 371.200 C 58.789 383.218,52.888 392.952,49.294 397.700 L 47.553 400.000 115.677 399.994 L 183.800 399.989 180.315 398.094 C 175.681 395.575,167.200 388.342,167.200 386.909 C 167.200 386.709,168.644 385.408,170.409 384.018 C 174.686 380.649,177.212 377.453,182.282 369.000 C 187.596 360.139,195.448 339.694,200.178 322.400 C 200.974 319.489,202.067 315.263,203.177 310.800 C 203.862 308.050,204.671 304.900,204.975 303.800 C 205.280 302.700,206.091 299.460,206.777 296.600 C 208.188 290.718,208.323 290.179,212.803 272.600 C 218.804 249.052,220.357 243.029,221.620 238.400 C 222.311 235.870,223.017 233.170,223.190 232.400 C 223.363 231.630,224.090 228.840,224.806 226.200 C 225.522 223.560,226.517 219.870,227.017 218.000 C 227.517 216.130,228.411 212.800,229.004 210.600 C 231.730 200.485,232.884 196.124,233.081 195.200 C 233.199 194.650,234.083 191.263,235.047 187.674 C 236.011 184.085,236.800 180.830,236.800 180.441 C 236.800 180.052,236.918 179.616,237.061 179.472 C 237.205 179.328,237.814 177.273,238.415 174.905 C 239.015 172.537,240.171 168.080,240.983 165.000 C 241.795 161.920,242.896 157.735,243.430 155.700 C 247.505 140.160,249.737 131.698,250.682 128.200 C 251.217 126.220,252.159 122.710,252.777 120.400 C 253.394 118.090,254.388 114.400,254.986 112.200 C 255.583 110.000,256.670 105.950,257.401 103.200 C 258.776 98.028,259.477 95.434,261.615 87.600 C 262.306 85.070,263.313 81.290,263.853 79.200 C 264.393 77.110,265.177 74.230,265.594 72.800 C 266.011 71.370,266.801 68.490,267.350 66.400 C 267.899 64.310,268.651 61.520,269.021 60.200 C 269.391 58.880,269.836 57.170,270.010 56.400 C 270.183 55.630,270.972 52.700,271.763 49.888 C 273.654 43.164,273.673 43.275,270.900 45.036 C 266.747 47.673,256.424 55.561,252.787 58.877 C 252.230 59.384,250.430 60.965,248.787 62.389 C 244.441 66.156,241.384 69.026,234.185 76.098 C 230.656 79.564,227.581 82.400,227.350 82.400 C 225.152 82.400,216.824 70.359,215.040 64.600 C 214.631 63.280,214.123 61.750,213.911 61.200 C 213.699 60.650,213.425 58.179,213.304 55.708 C 212.898 47.496,215.745 44.048,231.400 33.794 C 250.214 21.470,265.745 13.701,283.000 7.982 C 285.860 7.034,288.560 6.135,289.000 5.984 C 291.043 5.286,298.202 3.312,304.800 1.628 C 311.176 0.001,313.985 0.077,247.000 0.061 L 183.800 0.046 185.867 0.986 M392.400 0.505 C 392.950 0.753,394.885 1.629,396.700 2.452 L 400.000 3.948 400.000 1.974 L 400.000 0.000 395.700 0.027 C 392.171 0.049,391.579 0.135,392.400 0.505 M333.400 17.829 C 325.178 18.941,314.929 21.504,309.400 23.829 C 308.740 24.107,306.580 25.001,304.600 25.816 C 302.620 26.631,300.485 27.561,299.856 27.882 L 298.712 28.466 300.121 29.424 C 301.690 30.490,303.877 33.626,304.810 36.146 C 305.423 37.800,304.901 40.994,302.809 48.400 C 302.592 49.170,301.790 52.410,301.029 55.600 C 297.467 70.515,294.359 83.184,293.807 85.035 C 293.473 86.154,293.200 87.451,293.200 87.916 C 293.200 88.382,293.032 89.176,292.826 89.681 C 292.621 90.187,291.624 94.110,290.611 98.400 C 288.566 107.064,287.272 112.507,286.047 117.600 C 285.597 119.470,284.770 122.980,284.209 125.400 C 283.648 127.820,283.016 130.520,282.806 131.400 C 281.866 135.320,279.053 147.729,278.361 151.000 C 277.942 152.980,277.347 155.680,277.037 157.000 C 275.357 164.170,274.267 169.049,272.613 176.800 C 271.604 181.530,270.619 186.030,270.424 186.800 C 270.229 187.570,269.776 189.910,269.418 192.000 C 269.059 194.090,268.597 196.700,268.390 197.800 C 267.979 199.986,266.108 210.602,265.570 213.800 C 265.260 215.644,264.979 217.138,263.351 225.600 C 263.034 227.250,262.662 229.212,262.525 229.961 L 262.276 231.322 264.038 231.052 C 270.932 229.996,287.470 225.684,292.425 223.651 C 292.961 223.431,294.930 222.680,296.800 221.983 C 319.833 213.391,344.580 196.645,361.801 177.999 C 386.402 151.361,399.570 117.276,399.595 80.164 C 399.602 70.626,398.082 60.157,396.000 55.400 C 395.808 54.960,395.528 54.150,395.378 53.600 C 391.983 41.111,379.050 27.347,365.800 22.121 C 357.466 18.834,341.552 16.726,333.400 17.829 M392.600 193.807 C 381.169 205.248,373.036 211.719,357.550 221.692 C 351.926 225.315,335.962 233.719,330.000 236.196 C 328.570 236.790,326.860 237.522,326.200 237.823 C 314.456 243.177,293.516 248.500,276.000 250.583 C 273.030 250.936,269.160 251.400,267.400 251.613 C 265.640 251.827,263.007 252.001,261.549 252.001 C 258.263 252.000,258.323 251.922,257.254 257.600 C 256.778 260.130,256.218 262.830,256.011 263.600 C 255.645 264.957,255.089 267.710,252.980 278.600 C 252.426 281.460,251.812 284.430,251.616 285.200 C 251.421 285.970,250.959 288.130,250.590 290.000 C 250.221 291.870,249.677 294.480,249.382 295.800 C 249.086 297.120,248.726 298.920,248.581 299.800 C 248.330 301.329,247.431 305.430,246.211 310.600 C 245.900 311.920,245.450 313.900,245.211 315.000 C 244.469 318.416,239.989 336.770,238.766 341.400 C 237.493 346.224,237.513 346.153,235.154 354.200 C 234.251 357.280,233.418 360.250,233.303 360.800 C 233.187 361.350,232.962 361.980,232.801 362.200 C 232.641 362.420,232.382 363.140,232.226 363.800 C 231.927 365.061,228.356 374.801,227.313 377.200 C 221.940 389.556,215.853 396.885,209.000 399.248 C 207.630 399.721,221.226 399.814,303.566 399.901 C 356.457 399.956,399.792 399.941,399.867 399.867 C 399.941 399.793,399.956 351.777,399.901 293.166 L 399.800 186.600 392.600 193.807 M322.779 358.377 C 323.579 359.244,325.487 361.799,327.017 364.054 C 331.601 370.809,331.128 370.836,335.800 363.549 C 337.120 361.490,338.875 359.129,339.700 358.303 L 341.200 356.800 345.142 356.800 C 351.639 356.800,352.021 358.023,351.485 377.127 C 351.175 388.171,351.512 387.798,342.081 387.541 C 335.580 387.363,335.772 387.519,335.502 382.233 C 335.246 377.218,334.993 376.633,333.866 378.455 C 326.162 390.909,326.042 390.922,320.084 380.000 C 318.123 376.405,317.600 376.764,317.600 381.709 C 317.600 387.093,317.433 387.281,312.791 387.117 C 307.599 386.933,307.800 387.514,307.800 372.671 C 307.800 355.920,307.364 356.800,315.661 356.800 L 321.323 356.800 322.779 358.377 M388.000 357.600 C 389.109 358.709,389.126 361.797,388.026 362.386 C 387.601 362.614,384.824 362.800,381.855 362.800 C 375.287 362.800,375.107 362.903,375.282 366.546 L 375.400 369.000 380.334 369.200 C 385.830 369.423,386.400 369.710,386.400 372.254 C 386.400 374.352,385.343 374.800,380.391 374.800 C 375.464 374.800,375.200 374.953,375.200 377.800 C 375.200 380.755,375.302 380.800,382.047 380.800 C 385.285 380.800,388.233 380.915,388.598 381.055 C 390.100 381.631,390.074 385.069,388.556 386.587 C 387.821 387.321,360.151 387.523,358.806 386.803 C 357.271 385.982,357.004 383.930,357.007 373.000 C 357.011 361.061,357.226 359.108,358.690 357.751 L 359.717 356.800 373.458 356.800 C 386.667 356.800,387.231 356.831,388.000 357.600 M299.761 378.558 C 302.784 379.821,303.443 383.730,301.038 386.135 C 297.385 389.788,290.863 387.054,291.765 382.247 C 292.410 378.807,296.186 377.064,299.761 378.558 M0.000 389.400 L 0.000 400.000 6.433 400.000 L 12.867 400.000 12.031 398.900 C 9.685 395.814,6.796 391.559,5.718 389.600 C 3.909 386.315,1.741 381.994,1.051 380.300 C 0.055 377.853,0.000 378.332,0.000 389.400 " stroke="none" fill="#040404" fill-rule="evenodd"></path></g></svg>